<svg width="1171" height="129" viewBox="0 0 1171 129" fill="none" xmlns="http://www.w3.org/2000/svg">
<g clip-path="url(#clip0_771_7279)">
<path d="M128.922 52.3633H180.077C181.491 52.3633 182.639 53.5083 182.639 54.9199V125.64H126.36V54.9199C126.36 53.5083 127.508 52.3633 128.922 52.3633V52.3633Z" stroke="#008996" stroke-miterlimit="10"/>
<path d="M139.097 21.3599H169.903C172.926 21.3599 175.372 23.8084 175.372 26.8187V52.3629H133.62V26.8187C133.62 23.8012 136.074 21.3599 139.09 21.3599H139.097Z" stroke="#008996" stroke-miterlimit="10"/>
<path d="M154.496 36.7642C157.21 36.7642 159.41 34.5685 159.41 31.8599C159.41 29.1513 157.21 26.9556 154.496 26.9556C151.782 26.9556 149.582 29.1513 149.582 31.8599C149.582 34.5685 151.782 36.7642 154.496 36.7642Z" stroke="#008996" stroke-miterlimit="10"/>
</g>
<g clip-path="url(#clip1_771_7279)">
<path d="M832.922 63.584H884.077C885.491 63.584 886.639 64.5546 886.639 65.751V125.695H830.36V65.751C830.36 64.5546 831.508 63.584 832.922 63.584V63.584Z" stroke="#008996" stroke-miterlimit="10"/>
<path d="M843.097 37.3052H873.903C876.926 37.3052 879.372 39.3806 879.372 41.9322V63.584H837.62V41.9322C837.62 39.3745 840.074 37.3052 843.09 37.3052H843.097Z" stroke="#008996" stroke-miterlimit="10"/>
<path d="M858.496 50.3623C861.21 50.3623 863.41 48.5012 863.41 46.2053C863.41 43.9095 861.21 42.0483 858.496 42.0483C855.782 42.0483 853.582 43.9095 853.582 46.2053C853.582 48.5012 855.782 50.3623 858.496 50.3623Z" stroke="#008996" stroke-miterlimit="10"/>
</g>
<g clip-path="url(#clip2_771_7279)">
<path d="M289.613 121.613L288.094 74.359H284.341C284.341 74.359 284.295 72.8097 283.535 72.0351C282.776 71.2604 269.861 67.3872 261.504 67.3872C253.148 67.3872 240.233 71.2604 239.473 72.0351C238.713 72.8097 238.668 74.359 238.668 74.359H234.915L233.396 121.613H289.613Z" stroke="#008996" stroke-miterlimit="10"/>
<path d="M238.667 74.3594H284.332" stroke="#008996" stroke-miterlimit="10"/>
</g>
<g clip-path="url(#clip3_771_7279)">
<path d="M1126.62 121.394L1125.13 47.5069H1121.44C1121.44 47.5069 1121.39 45.0843 1120.65 43.8731C1119.9 42.6618 1107.21 36.6055 1099 36.6055C1090.79 36.6055 1078.11 42.6618 1077.36 43.8731C1076.61 45.0843 1076.57 47.5069 1076.57 47.5069H1072.88L1071.39 121.394H1126.62Z" stroke="#008996" stroke-miterlimit="10"/>
<path d="M1076.57 47.5068H1121.43" stroke="#008996" stroke-miterlimit="10"/>
</g>
<g clip-path="url(#clip4_771_7279)">
<path d="M743.63 42.2861C774.717 42.7837 774.717 50.9387 774.717 50.9387V119.564C774.717 119.564 768.5 128.714 743.63 128.714H741.369C716.5 128.714 710.282 119.564 710.282 119.564V50.9387C710.282 50.9387 710.282 42.7837 741.369 42.2861H743.63Z" stroke="#008996" stroke-miterlimit="10"/>
<path d="M710.282 50.9387C710.282 50.9387 711.413 52.6543 713.108 53.7981C714.804 54.9418 723.847 58.842 742.5 58.8935C761.152 58.945 770.195 54.3699 771.891 53.2262C773.587 52.0824 774.943 50.2067 774.265 49.7148" stroke="#008996" stroke-miterlimit="10"/>
</g>
<g clip-path="url(#clip5_771_7279)">
<path d="M495.04 0.354004C523.644 1.06888 523.644 12.6981 523.644 12.6981V110.594C523.644 110.594 517.923 123.646 495.04 123.646H492.96C470.077 123.646 464.356 110.594 464.356 110.594L464.641 12.6981C464.641 12.6981 464.356 1.06888 492.96 0.354004H495.04Z" stroke="#008996" stroke-miterlimit="10"/>
<path d="M464.642 12.698C464.642 12.698 465.682 15.147 467.242 16.7749C468.802 18.4029 476.838 23.9662 494 24.0441C511.163 24.1148 519.484 17.5889 521.044 15.961C522.604 14.333 523.851 11.6504 523.231 10.9497" stroke="#008996" stroke-miterlimit="10"/>
</g>
<g clip-path="url(#clip6_771_7279)">
<path d="M980.491 67.1626C1021.49 67.4912 1021.49 72.8369 1021.49 72.8369V117.838C1021.49 117.838 1013.29 123.837 980.491 123.837H977.509C944.71 123.837 936.511 117.838 936.511 117.838L936.919 72.8369C936.919 72.8369 936.511 67.4912 977.509 67.1626H980.491Z" stroke="#008996" stroke-miterlimit="10"/>
<path d="M936.919 72.8368C936.919 72.8368 938.41 73.9626 940.646 74.7109C942.882 75.4593 954.401 78.0166 979 78.0524C1003.6 78.0849 1015.53 75.0851 1017.76 74.3368C1020 73.5884 1021.79 72.3553 1020.9 72.0332" stroke="#008996" stroke-miterlimit="10"/>
</g>
<g clip-path="url(#clip7_771_7279)">
<path d="M634.076 31.3159H585.931C584.95 31.3159 584.154 32.117 584.154 33.1052V77.3449C584.154 78.3331 584.95 79.1342 585.931 79.1342H634.076C635.057 79.1342 635.853 78.3331 635.853 77.3449V33.1052C635.853 32.117 635.057 31.3159 634.076 31.3159Z" stroke="#008996" stroke-miterlimit="10"/>
<path d="M610 51.3461C613.156 51.3461 615.715 48.7701 615.715 45.5925C615.715 42.4149 613.156 39.8389 610 39.8389C606.845 39.8389 604.286 42.4149 604.286 45.5925C604.286 48.7701 606.845 51.3461 610 51.3461Z" stroke="#008996" stroke-miterlimit="10"/>
<path d="M629.316 100.138V79.1343H590.685V100.138" stroke="#008996" stroke-miterlimit="10"/>
<path d="M644.267 100.138H629.316V102.073H590.685V100.138H575.734C574.949 100.138 574.314 100.777 574.314 101.567V122.255C574.314 123.045 574.949 123.684 575.734 123.684H644.267C645.052 123.684 645.687 123.045 645.687 122.255V101.567C645.687 100.777 645.052 100.138 644.267 100.138V100.138Z" stroke="#008996" stroke-miterlimit="10"/>
<path d="M590.685 100.138V102.073H629.316V100.138" stroke="#008996" stroke-miterlimit="10"/>
</g>
<g clip-path="url(#clip8_771_7279)">
<path d="M404.759 51.3022H350.374C349.428 51.3022 348.661 52.0685 348.661 53.0137V81.3646C348.661 82.3098 349.428 83.0761 350.374 83.0761H404.759C405.705 83.0761 406.472 82.3098 406.472 81.3646V53.0137C406.472 52.0685 405.705 51.3022 404.759 51.3022Z" stroke="#008996" stroke-miterlimit="10"/>
<path d="M377.572 66.923C380.614 66.923 383.079 64.4591 383.079 61.4198C383.079 58.3804 380.614 55.9165 377.572 55.9165C374.53 55.9165 372.064 58.3804 372.064 61.4198C372.064 64.4591 374.53 66.923 377.572 66.923Z" stroke="#008996" stroke-miterlimit="10"/>
<path d="M398.446 83.0762H356.686V99.4529H398.446V83.0762Z" stroke="#008996" stroke-miterlimit="10"/>
<path d="M413.698 99.4531H340.303V123.698H413.698V99.4531Z" stroke="#008996" stroke-miterlimit="10"/>
</g>
<g clip-path="url(#clip9_771_7279)">
<path d="M75.4824 110.246H0.516602V123.495H75.4824V110.246Z" stroke="#008996" stroke-miterlimit="10"/>
<path d="M75.4824 98.9751H0.516602V110.246H75.4824V98.9751Z" stroke="#008996" stroke-miterlimit="10"/>
<path d="M68.6057 98.9753C68.6057 98.9753 69.2779 77.3298 63.2695 64.0293C57.261 50.7288 42.9794 46.5151 38.0982 46.5151H37.9947C33.1135 46.5151 18.8422 50.7288 12.8234 64.0293C6.80465 77.3298 7.4872 98.9753 7.4872 98.9753" stroke="#008996" stroke-miterlimit="10"/>
<path d="M38.595 58.8164C40.7768 58.8164 42.5455 57.0544 42.5455 54.8809C42.5455 52.7073 40.7768 50.9453 38.595 50.9453C36.4132 50.9453 34.6445 52.7073 34.6445 54.8809C34.6445 57.0544 36.4132 58.8164 38.595 58.8164Z" stroke="#008996" stroke-miterlimit="10"/>
</g>
<defs>
<clipPath id="clip0_771_7279">
<rect width="57" height="105" fill="white" transform="translate(126 21)"/>
</clipPath>
<clipPath id="clip1_771_7279">
<rect width="57" height="89" fill="white" transform="translate(830 37)"/>
</clipPath>
<clipPath id="clip2_771_7279">
<rect width="57" height="55" fill="white" transform="translate(233 67)"/>
</clipPath>
<clipPath id="clip3_771_7279">
<rect width="56" height="86" fill="white" transform="translate(1071 36)"/>
</clipPath>
<clipPath id="clip4_771_7279">
<rect width="65" height="87" fill="white" transform="translate(710 42)"/>
</clipPath>
<clipPath id="clip5_771_7279">
<rect width="60" height="124" fill="white" transform="translate(464)"/>
</clipPath>
<clipPath id="clip6_771_7279">
<rect width="86" height="57" fill="white" transform="translate(936 67)"/>
</clipPath>
<clipPath id="clip7_771_7279">
<rect width="72" height="93" fill="white" transform="translate(574 31)"/>
</clipPath>
<clipPath id="clip8_771_7279">
<rect width="74" height="73" fill="white" transform="translate(340 51)"/>
</clipPath>
<clipPath id="clip9_771_7279">
<rect width="76" height="78" fill="white" transform="translate(0 46)"/>
</clipPath>
</defs>
</svg>
