<svg width="1530" height="194" viewBox="0 0 1530 194" fill="none" xmlns="http://www.w3.org/2000/svg">
<g clip-path="url(#clip0_771_8397)">
<path d="M665.845 6.81051C665.845 6.81051 662.851 6.81051 659.342 7.11001C655.833 7.40952 641.893 9.20653 640.096 9.80554C638.3 10.4045 638.3 12.2016 638.3 12.2016C638.3 12.2016 644.288 42.1519 647.282 69.7061C650.276 97.2604 655.066 140.389 654.467 185.314C654.467 185.314 654.467 187.71 656.264 188.908C658.06 190.106 671.833 193.7 688 193.7C702.97 193.7 717.941 190.106 719.737 188.908C721.533 187.71 721.533 185.314 721.533 185.314C720.935 140.389 725.725 97.2604 728.719 69.7061C731.713 42.1519 737.701 12.2016 737.701 12.2016C737.701 12.2016 737.701 10.4045 735.905 9.80554C734.108 9.20653 720.168 7.40952 716.659 7.11001C713.15 6.81051 710.156 6.81051 710.156 6.81051L709.994 0.299316H666.204L665.845 6.81051V6.81051Z" stroke="#008996" stroke-miterlimit="10"/>
<path d="M640.096 9.80566C640.096 9.80566 668.239 12.3395 688 12.2736C707.76 12.2077 735.904 9.80566 735.904 9.80566" stroke="#008996" stroke-miterlimit="10"/>
<path d="M654.515 177.695C654.515 177.695 667.64 182.026 688 181.87C708.359 181.714 721.485 177.695 721.485 177.695" stroke="#008996" stroke-miterlimit="10"/>
</g>
<g clip-path="url(#clip1_771_8397)">
<path d="M135.845 6.81051C135.845 6.81051 132.851 6.81051 129.342 7.11001C125.833 7.40952 111.893 9.20653 110.096 9.80554C108.3 10.4045 108.3 12.2016 108.3 12.2016C108.3 12.2016 114.288 42.1519 117.282 69.7061C120.276 97.2604 125.066 140.389 124.467 185.314C124.467 185.314 124.467 187.71 126.264 188.908C128.06 190.106 141.833 193.7 158 193.7C172.97 193.7 187.941 190.106 189.737 188.908C191.533 187.71 191.533 185.314 191.533 185.314C190.935 140.389 195.725 97.2604 198.719 69.7061C201.713 42.1519 207.701 12.2016 207.701 12.2016C207.701 12.2016 207.701 10.4045 205.905 9.80554C204.108 9.20653 190.168 7.40952 186.659 7.11001C183.15 6.81051 180.156 6.81051 180.156 6.81051L179.994 0.299316H136.204L135.845 6.81051V6.81051Z" stroke="#008996" stroke-miterlimit="10"/>
<path d="M110.096 9.80566C110.096 9.80566 138.239 12.3395 158 12.2736C177.76 12.2077 205.904 9.80566 205.904 9.80566" stroke="#008996" stroke-miterlimit="10"/>
<path d="M124.515 177.695C124.515 177.695 137.64 182.026 158 181.87C178.359 181.714 191.485 177.695 191.485 177.695" stroke="#008996" stroke-miterlimit="10"/>
</g>
<g clip-path="url(#clip2_771_8397)">
<path d="M975.247 3.20801H993.195V21.2555C993.195 21.2555 1012.02 26.2872 1028.16 47.4951C1028.16 47.4951 1049.31 77.0448 1036.88 128.181C1024.44 179.317 1000.44 190.129 1000.44 190.129C1000.44 190.129 988.022 191.792 976.021 191.792H974.639C962.638 191.792 948.568 190.129 948.568 190.129C948.568 190.129 924.566 179.317 912.126 128.181C899.686 77.0448 920.837 47.4951 920.837 47.4951C936.976 26.2872 955.806 21.2555 955.806 21.2555V3.20801H975.247Z" stroke="#008996" stroke-miterlimit="10"/>
<path d="M974.502 24.416H956.38C945.811 29.1982 931.257 36.0596 922.566 51.0299C913.876 66.0002 911.807 85.5447 912.635 100.515C913.462 115.485 918.428 137.525 922.566 145.01C926.705 152.495 929.655 155.29 933.976 157.219C938.292 159.149 962.017 159.777 976.707 159.772H976.501C991.191 159.785 1011.88 158.941 1016.2 157.011C1020.52 155.082 1023.47 152.287 1027.61 144.802C1031.75 137.317 1036.71 115.277 1037.54 100.307C1038.37 85.3368 1036.3 65.7923 1027.61 50.822C1018.92 35.8517 1005.26 29.1982 994.692 24.416H974.502V24.416Z" stroke="#008996" stroke-miterlimit="10"/>
</g>
<g clip-path="url(#clip3_771_8397)">
<path d="M535.247 3.16406H553.195V17.392C553.195 17.392 572.024 21.3588 588.163 38.0783C588.163 38.0783 609.314 61.3741 596.879 101.688C584.443 142.001 560.437 150.525 560.437 150.525C560.437 150.525 548.022 151.836 536.021 151.836H534.639C522.638 151.836 508.568 150.525 508.568 150.525C508.568 150.525 484.566 142.001 472.126 101.688C459.686 61.3741 480.837 38.0783 480.837 38.0783C496.976 21.3588 515.806 17.392 515.806 17.392V3.16406H535.247Z" stroke="#008996" stroke-miterlimit="10"/>
<path d="M534.502 19.8833H516.38C505.811 23.6534 491.257 29.0626 482.566 40.8646C473.876 52.6666 471.807 68.0747 472.635 79.8767C473.462 91.6787 478.428 109.054 482.566 114.955C486.705 120.856 489.655 123.059 493.976 124.58C498.292 126.101 522.017 126.596 536.707 126.593H536.501C551.191 126.603 571.883 125.937 576.199 124.416C580.515 122.895 583.47 120.692 587.608 114.791C591.747 108.89 596.712 91.5148 597.54 79.7128C598.368 67.9108 596.299 52.5027 587.608 40.7007C578.918 28.8987 565.262 23.6534 554.692 19.8833H534.502V19.8833Z" stroke="#008996" stroke-miterlimit="10"/>
</g>
<g clip-path="url(#clip4_771_8397)">
<path d="M835.793 14.6992L810.211 16.5979V20.0917L835.793 18.193V14.6992Z" stroke="#008996" stroke-miterlimit="10"/>
<path d="M835.793 9.64111L810.211 11.5398V14.2555L835.793 12.3568V9.64111Z" stroke="#008996" stroke-miterlimit="10"/>
<path d="M835.793 3.19434H823.492H822.508H810.211V9.19765L835.793 7.299V3.19434Z" stroke="#008996" stroke-miterlimit="10"/>
<path d="M857.207 40.934L846.401 29.651H835.793V20.5352L810.211 22.4338V29.651H799.599L788.797 40.934L788.198 112.717L797.918 123.805H822.508H823.492H848.086L857.802 112.717L857.207 40.934Z" stroke="#008996" stroke-miterlimit="10"/>
<path d="M810.211 9.19775L808.775 9.30669L808.954 11.6333L810.211 11.5399" stroke="#008996" stroke-miterlimit="10"/>
<path d="M835.793 9.64113L837.225 9.53219L837.046 7.20557L835.793 7.29894" stroke="#008996" stroke-miterlimit="10"/>
<path d="M810.211 11.5398L835.793 9.64111" stroke="#008996" stroke-miterlimit="10"/>
<path d="M835.793 7.29883L810.211 9.19748" stroke="#008996" stroke-miterlimit="10"/>
<path d="M835.793 14.6992L837.225 14.5903L837.046 12.2637L835.793 12.357" stroke="#008996" stroke-miterlimit="10"/>
<path d="M810.211 14.2554L808.775 14.3643L808.954 16.6909L810.211 16.5976" stroke="#008996" stroke-miterlimit="10"/>
<path d="M835.793 12.3569L810.211 14.2556" stroke="#008996" stroke-miterlimit="10"/>
<path d="M810.211 16.5979L835.793 14.6992" stroke="#008996" stroke-miterlimit="10"/>
<path d="M810.211 20.0913L808.775 20.2002L808.954 22.5269L810.211 22.4335" stroke="#008996" stroke-miterlimit="10"/>
<path d="M835.793 20.5352L837.225 20.4262L837.046 18.0996L835.793 18.193" stroke="#008996" stroke-miterlimit="10"/>
<path d="M823.991 101.345C830.531 101.345 842.875 98.5551 845.647 92.6685C848.419 86.782 850.612 60.4499 850.454 53.575C850.295 46.7002 843.823 37.3665 840.841 36.7479C840.841 36.7479 830.372 35.9736 823.991 35.9736H823.492C817.111 35.9736 806.642 36.7479 806.642 36.7479C803.66 37.3665 797.188 46.7041 797.03 53.575C796.871 60.446 799.064 86.782 801.836 92.6685C804.608 98.5551 816.953 101.345 823.492 101.345H823.991V101.345Z" stroke="#008996" stroke-miterlimit="10"/>
</g>
<g clip-path="url(#clip5_771_8397)">
<path d="M1169.69 9.39209H1198.67C1198.67 9.39209 1198.67 20.3694 1198.67 21.1535C1198.67 21.9375 1199.45 21.9375 1199.45 21.9375C1208.84 22.7216 1251.91 28.2103 1254.26 28.9944C1256.61 29.7785 1256.61 32.1307 1256.61 32.1307V129.217C1256.61 131.64 1255.11 133.812 1252.85 134.658C1243.45 138.187 1216.65 146.6 1175.17 146.6H1174.39C1131.78 146.6 1103.63 137.716 1094.56 134.376C1092.65 133.67 1091.39 131.851 1091.39 129.821V32.1307C1091.39 32.1307 1091.39 29.7785 1093.74 28.9944C1096.09 28.2103 1139.16 22.7216 1148.55 21.9375C1148.55 21.9375 1149.33 21.9375 1149.33 21.1535V9.39209H1169.69V9.39209Z" stroke="#008996" stroke-miterlimit="10"/>
<path d="M1173.99 110.446C1173.99 110.446 1189.25 110.658 1166.66 110.446C1144.06 110.234 1114.29 110.211 1106.91 110.43C1099.53 110.65 1096.39 108.188 1095.06 104.157C1093.72 100.127 1095.06 52.8465 1095.06 48.3693C1095.06 43.8843 1095.06 42.0966 1097.96 40.748C1097.96 40.748 1106.68 40.0737 1114.74 43.21C1122.8 46.3464 1155.6 48.3615 1173.99 48.5889C1192.39 48.3615 1225.19 46.3464 1233.24 43.21C1241.3 40.0737 1250.02 40.748 1250.02 40.748C1252.93 42.0888 1252.93 43.8843 1252.93 48.3693C1252.93 52.8543 1254.27 100.127 1252.93 104.157C1251.59 108.188 1248.45 110.658 1241.07 110.43C1233.7 110.203 1203.93 110.234 1181.33 110.446C1158.72 110.658 1173.99 110.446 1173.99 110.446V110.446Z" stroke="#008996" stroke-miterlimit="10"/>
</g>
<g clip-path="url(#clip6_771_8397)">
<path d="M1478.03 14.4319H1472.7L1413.06 10.9879V1.24902H1376.48V10.7985L1318.24 14.4319H1311.98C1309.37 14.4319 1307.25 16.5402 1307.25 19.1469V181.518C1307.25 187.17 1311.84 191.751 1317.5 191.751H1472.49C1478.16 191.751 1482.75 187.17 1482.75 181.518V19.1469C1482.75 16.5452 1480.63 14.4319 1478.02 14.4319H1478.03Z" stroke="#008996" stroke-miterlimit="10"/>
<path d="M1395 166.103C1414.72 166.372 1436.08 167.992 1443.26 169.068C1450.43 170.145 1459.32 172.034 1463.37 172.572C1467.43 173.111 1470.4 169.607 1470.94 166.372C1471.48 163.137 1470.94 156.663 1471.21 149.381C1471.48 142.1 1474.18 116.212 1474.18 103.538C1474.18 90.8632 1476.35 31.5377 1476.08 26.9573C1475.81 22.377 1470.13 22.9103 1467.43 23.4535C1464.73 23.9968 1448.78 22.1028 1441.49 21.2954C1434.19 20.488 1421.22 17.7916 1410.41 15.0952H1395H1393.17H1377.76C1366.95 17.7916 1353.98 20.488 1346.68 21.2954C1339.38 22.1028 1323.44 23.9918 1320.74 23.4535C1318.03 22.9152 1312.36 22.377 1312.09 26.9573C1311.82 31.5377 1313.98 90.8682 1313.98 103.538C1313.98 116.207 1316.68 142.1 1316.95 149.381C1317.22 156.663 1316.68 163.132 1317.22 166.372C1317.76 169.612 1320.74 173.116 1324.79 172.572C1328.85 172.029 1337.74 170.145 1344.91 169.068C1352.08 167.992 1373.44 166.372 1393.17 166.103H1395V166.103Z" stroke="#008996" stroke-miterlimit="10"/>
</g>
<g clip-path="url(#clip7_771_8397)">
<path d="M413.477 11.6893H408.636L354.419 8.94857V1.19824H321.167V8.79785L268.216 11.6893H262.522C260.152 11.6893 258.227 13.3671 258.227 15.4415V144.659C258.227 149.157 262.4 152.802 267.549 152.802H408.446C413.595 152.802 417.768 149.157 417.768 144.659V15.4415C417.768 13.3711 415.847 11.6893 413.472 11.6893H413.477Z" stroke="#008996" stroke-miterlimit="10"/>
<path d="M338.265 110.941C356.263 111.108 375.762 112.116 382.308 112.785C388.855 113.455 396.974 114.63 400.671 114.965C404.373 115.3 407.085 113.12 407.578 111.108C408.07 109.096 407.578 105.068 407.824 100.538C408.07 96.0083 410.537 79.9041 410.537 72.0193C410.537 64.1346 412.511 27.2287 412.264 24.3793C412.018 21.5299 406.839 21.8617 404.373 22.1996C401.907 22.5376 387.355 21.3594 380.694 20.8571C374.034 20.3548 362.194 18.6774 352.329 17H338.265H336.592H322.528C312.662 18.6774 300.823 20.3548 294.163 20.8571C287.502 21.3594 272.95 22.5345 270.484 22.1996C268.018 21.8648 262.839 21.5299 262.593 24.3793C262.346 27.2287 264.32 64.1377 264.32 72.0193C264.32 79.901 266.787 96.0083 267.033 100.538C267.279 105.068 266.787 109.093 267.279 111.108C267.771 113.123 270.484 115.303 274.186 114.965C277.887 114.627 286.002 113.455 292.549 112.785C299.095 112.116 318.589 111.108 336.592 110.941H338.265V110.941Z" stroke="#008996" stroke-miterlimit="10"/>
</g>
<g clip-path="url(#clip8_771_8397)">
<path d="M28.0235 137.517C35.9444 137.385 42.3648 136.462 45.7693 135.202C49.8528 133.693 52.9031 131.96 54.6742 130.744C56.1354 129.743 57.1932 129.259 57.3949 125.885C57.5966 122.506 56.9964 94.3012 56.3962 79.0073C55.796 63.7135 53.1885 35.4843 52.8539 33.072C52.5194 30.6598 52.1897 29.4537 51.0877 29.0142C49.9856 28.5747 48.7065 29.0142 48.7065 29.0142C48.7065 29.0142 37.8484 30.8697 29.647 30.6305H28.0727C19.8713 30.8697 9.01321 29.0142 9.01321 29.0142C9.01321 29.0142 7.73405 28.5747 6.63201 29.0142C5.52996 29.4537 5.19541 30.6598 4.86578 33.072C4.53616 35.4843 1.92372 63.7135 1.3235 79.0073C0.723279 94.3012 0.118138 122.511 0.319852 125.885C0.521565 129.259 1.57933 129.84 3.04052 130.841C4.81167 132.052 8.59502 134.304 13.018 135.305C17.1113 136.232 21.7753 137.385 29.6913 137.517H28.0284H28.0235Z" stroke="#008996" stroke-miterlimit="10"/>
<path d="M56.4891 129.577C56.4891 129.577 57.6502 129.669 57.7191 130.763C57.788 131.857 57.7191 143.747 57.7191 143.747C57.7191 143.747 47.2447 151.878 28.3083 151.756H29.6809C10.7444 151.878 0.270104 143.747 0.270104 143.747C0.270104 143.747 0.196306 131.852 0.270104 130.763C0.343901 129.674 1.50006 129.577 1.50006 129.577" stroke="#008996" stroke-miterlimit="10"/>
<path d="M7.05548 28.8678C6.28306 28.8678 5.65332 28.2428 5.65332 27.4761V2.63582C5.65332 1.86918 6.28306 1.24414 7.05548 1.24414H49.7843C50.5567 1.24414 51.1864 1.86918 51.1864 2.63582V27.4761C51.1864 28.2428 50.5567 28.8678 49.7843 28.8678" stroke="#008996" stroke-miterlimit="10"/>
</g>
<defs>
<clipPath id="clip0_771_8397">
<rect width="100" height="194" fill="white" transform="translate(638)"/>
</clipPath>
<clipPath id="clip1_771_8397">
<rect width="100" height="194" fill="white" transform="translate(108)"/>
</clipPath>
<clipPath id="clip2_771_8397">
<rect width="133" height="189" fill="white" transform="translate(908 3)"/>
</clipPath>
<clipPath id="clip3_771_8397">
<rect width="133" height="149" fill="white" transform="translate(468 3)"/>
</clipPath>
<clipPath id="clip4_771_8397">
<rect width="70" height="121" fill="white" transform="translate(788 3)"/>
</clipPath>
<clipPath id="clip5_771_8397">
<rect width="166" height="138" fill="white" transform="translate(1091 9)"/>
</clipPath>
<clipPath id="clip6_771_8397">
<rect width="176" height="191" fill="white" transform="translate(1307 1)"/>
</clipPath>
<clipPath id="clip7_771_8397">
<rect width="160" height="152" fill="white" transform="translate(258 1)"/>
</clipPath>
<clipPath id="clip8_771_8397">
<rect width="58" height="151" fill="white" transform="translate(0 1)"/>
</clipPath>
</defs>
</svg>
